<?xml version="1.0" standalone="no"?>
<!DOCTYPE svg PUBLIC "-//W3C//DTD SVG 20010904//EN"
 "http://www.w3.org/TR/2001/REC-SVG-20010904/DTD/svg10.dtd">
<svg version="1.0" xmlns="http://www.w3.org/2000/svg"
 width="1280.000000pt" height="1158.000000pt" viewBox="0 0 1280.000000 1158.000000"
 preserveAspectRatio="xMidYMid meet">
<metadata>
Created by potrace 1.15, written by Peter Selinger 2001-2017
</metadata>
<g transform="translate(0.000000,1158.000000) scale(0.100000,-0.100000)"
fill="#000000" stroke="none">
<path d="M8305 11570 c-3 -5 -14 -10 -24 -10 -48 0 -69 -68 -51 -164 14 -74
10 -90 -30 -142 -50 -62 -55 -96 -37 -246 11 -86 15 -162 11 -213 -4 -47 -1
-117 5 -166 l13 -85 -46 -139 c-50 -153 -56 -199 -28 -214 14 -7 159 -31 189
-31 2 0 3 66 2 148 -2 207 14 258 45 137 20 -79 20 -126 1 -189 -8 -27 -15
-54 -15 -61 0 -13 94 -45 134 -45 37 0 76 41 76 79 0 17 -18 81 -41 143 l-41
113 -9 220 c-4 121 -13 247 -20 280 -9 49 -8 74 5 137 27 129 21 164 -43 233
-35 38 -39 48 -45 115 -8 75 -19 110 -36 110 -5 0 -12 -4 -15 -10z"/>
<path d="M10510 11440 c-8 -5 -23 -11 -33 -14 -28 -9 -40 -54 -32 -126 10 -91
9 -98 -20 -140 -40 -57 -48 -99 -35 -188 9 -67 22 -354 20 -452 0 -19 -11 -69
-25 -110 -36 -113 -47 -159 -40 -180 6 -18 49 -32 138 -44 l37 -5 1 142 c1
185 13 223 37 112 19 -90 19 -104 2 -167 l-17 -62 54 -18 c30 -11 63 -16 74
-13 58 19 63 72 18 201 -28 81 -33 109 -46 314 -18 275 -19 296 -8 391 10 94
5 114 -39 162 -35 39 -46 72 -46 136 0 45 -19 73 -40 61z"/>
<path d="M9455 10962 c-53 -9 -77 -27 -101 -73 l-24 -48 20 -83 c10 -46 22
-95 25 -110 3 -14 25 -47 51 -73 l45 -47 -22 -24 c-12 -13 -28 -24 -35 -24 -9
0 -15 -28 -19 -89 l-7 -89 -37 5 c-20 3 -97 16 -171 28 -74 13 -137 21 -139
19 -9 -9 -50 -249 -43 -255 4 -3 43 -20 87 -38 98 -38 96 -37 118 -84 19 -42
52 -61 130 -72 44 -7 47 -9 47 -37 0 -16 -11 -57 -25 -91 -21 -53 -26 -89 -35
-249 -10 -166 -9 -194 6 -245 12 -42 18 -114 21 -258 4 -180 7 -203 26 -234
19 -32 20 -39 8 -106 -20 -119 -29 -144 -56 -151 -42 -11 -48 -28 -21 -61 25
-29 25 -30 11 -98 -9 -41 -23 -78 -37 -92 -27 -29 -104 -73 -128 -73 -23 0
-43 -24 -38 -47 6 -30 96 -72 155 -73 44 0 58 5 85 29 19 16 51 32 73 36 22 4
61 13 87 21 l46 15 -5 82 c-3 45 -10 91 -15 101 -10 18 -7 18 61 12 61 -6 72
-5 77 9 9 23 -15 223 -31 260 -8 19 -16 100 -20 215 -4 102 -11 202 -17 222
-11 39 -9 52 44 280 12 48 31 104 42 125 20 35 26 38 64 38 33 0 42 4 42 17 0
36 32 94 63 113 23 15 39 39 59 90 37 91 34 143 -15 255 -35 80 -38 93 -42
209 -3 109 -7 130 -31 178 -14 30 -55 83 -89 118 -35 34 -66 72 -70 84 -4 14
-15 21 -32 21 -25 0 -25 0 -16 63 20 150 -2 242 -62 260 -63 18 -91 23 -110
19z"/>
<path d="M5692 10577 c-25 -26 -28 -66 -12 -162 11 -69 6 -81 -66 -147 -25
-23 -49 -50 -55 -59 -5 -10 -5 -75 0 -162 8 -140 9 -148 40 -195 30 -48 31
-52 30 -158 -1 -106 0 -113 44 -236 74 -207 73 -175 33 -641 -14 -169 -6 -210
50 -269 41 -43 124 -88 162 -88 21 0 22 4 22 79 l0 78 46 7 c26 3 80 6 120 6
75 0 129 13 119 29 -3 5 -41 35 -85 65 -44 31 -87 71 -97 89 -24 43 -23 201 2
317 27 125 24 228 -9 320 -26 72 -27 84 -30 310 -2 221 -4 239 -26 295 -23 58
-28 115 -20 230 1 23 -7 50 -24 79 -39 67 -35 92 19 118 25 12 44 27 42 33 -2
5 -27 11 -55 13 -40 2 -52 7 -57 22 -13 40 -34 50 -104 50 -58 0 -71 -3 -89
-23z"/>
<path d="M6613 10499 c-62 -18 -78 -81 -50 -200 8 -31 10 -65 6 -77 -4 -11
-43 -47 -85 -79 -108 -81 -117 -95 -104 -162 5 -30 10 -89 10 -133 0 -89 13
-129 63 -191 44 -54 47 -71 35 -163 -9 -70 -8 -80 17 -152 15 -42 44 -111 65
-152 64 -130 73 -169 67 -289 -4 -58 -14 -176 -22 -261 -28 -275 -29 -313 -10
-354 33 -68 141 -137 265 -169 l55 -14 10 91 10 91 40 7 c22 4 95 7 163 7 141
1 219 15 201 37 -6 8 -56 37 -110 65 -115 61 -155 96 -170 153 -16 60 -5 195
26 316 22 88 26 120 22 195 -3 79 -9 99 -43 170 l-39 80 3 200 c4 244 -5 314
-52 409 -40 81 -44 116 -19 186 l17 48 -34 54 c-66 105 -71 130 -28 144 11 3
40 15 66 26 42 19 44 22 27 34 -11 8 -44 14 -81 14 -60 0 -63 1 -82 33 -16 29
-27 35 -67 40 -63 9 -133 7 -172 -4z"/>
<path d="M3641 10427 c-5 -13 -13 -41 -17 -61 -10 -55 -44 -97 -99 -123 -91
-43 -100 -50 -128 -102 -37 -67 -57 -165 -57 -286 0 -121 14 -178 75 -309 66
-142 74 -190 46 -304 -26 -102 -24 -111 28 -196 l36 -60 -1 -230 c0 -214 -2
-239 -27 -341 -27 -115 -36 -290 -16 -327 13 -24 60 -23 91 1 31 25 84 38 188
46 129 10 150 20 85 43 -18 7 -45 26 -59 43 -43 50 -50 94 -40 231 6 72 6 152
1 192 -9 67 3 146 21 146 12 -1 100 -291 112 -368 15 -108 76 -212 123 -212
28 0 122 35 165 62 21 13 44 19 62 16 24 -4 30 -1 30 14 0 10 6 18 13 18 6 1
-10 9 -36 20 -60 23 -113 63 -138 104 -29 47 -44 111 -84 348 -49 292 -76 416
-114 521 -18 50 -31 102 -29 120 3 30 5 32 43 32 l40 0 6 -53 c6 -49 22 -82
39 -82 16 0 32 62 27 106 -5 51 -49 127 -89 157 -15 11 -44 23 -65 26 -32 5
-38 10 -38 31 0 22 7 26 60 38 70 15 95 35 95 73 0 36 -23 43 -82 26 -37 -12
-49 -12 -70 -1 -60 32 -142 203 -142 300 -1 72 12 91 82 125 l45 22 19 -23
c18 -22 19 -22 38 -5 38 34 52 133 25 172 -18 25 -118 60 -201 69 -51 6 -54 5
-63 -19z"/>
<path d="M7677 10313 c-3 -5 -12 -34 -20 -66 -21 -80 -37 -101 -107 -138 -70
-37 -91 -69 -116 -176 -12 -50 -15 -105 -12 -208 l4 -140 49 -120 c57 -141 66
-206 41 -314 -19 -81 -15 -104 28 -181 l31 -55 -1 -210 c-1 -179 -5 -226 -24
-320 -18 -82 -23 -137 -22 -218 1 -60 5 -113 8 -118 9 -15 50 -10 75 9 32 25
84 42 129 42 59 0 130 12 130 22 0 4 -10 12 -22 17 -38 15 -76 63 -88 111 -8
31 -8 80 -2 160 6 73 6 139 0 179 -7 48 -7 75 3 103 7 21 14 37 15 35 11 -10
84 -276 89 -324 4 -32 13 -79 21 -105 18 -55 68 -128 89 -128 7 0 49 18 92 41
46 24 87 38 101 36 16 -3 22 1 22 14 0 11 6 19 13 19 6 0 -11 11 -39 24 -89
41 -124 95 -149 227 -8 46 -31 192 -51 324 -21 140 -48 277 -64 330 -46 147
-48 183 -8 198 25 9 48 -19 48 -59 0 -37 15 -74 30 -74 4 0 14 16 20 36 14 42
1 106 -33 167 -24 43 -49 61 -95 71 -25 6 -32 13 -32 31 0 19 8 25 50 35 61
15 80 32 80 72 0 29 -1 30 -37 26 -21 -3 -46 -8 -56 -13 -45 -19 -142 160
-154 286 -5 54 -4 58 31 96 44 49 71 58 97 32 18 -18 19 -18 36 8 10 15 19 52
21 87 5 75 -4 85 -102 115 -71 22 -111 26 -119 14z"/>
<path d="M11898 10304 c-16 -8 -28 -16 -28 -18 0 -2 14 -33 31 -69 19 -43 29
-78 27 -99 -3 -30 -10 -37 -76 -71 -40 -21 -79 -49 -88 -62 -20 -31 -22 -108
-5 -250 l13 -110 -32 -125 c-50 -197 -61 -272 -67 -466 -6 -205 2 -278 47
-396 17 -43 30 -95 30 -117 0 -40 -1 -42 -80 -109 -19 -17 -33 -33 -30 -36 3
-3 46 1 95 9 50 8 104 15 120 15 47 0 55 12 62 83 3 37 10 67 14 67 13 0 10
56 -6 130 -29 132 -16 219 57 381 l43 94 0 225 1 225 42 145 c53 183 54 226 7
300 -34 53 -35 56 -35 162 l0 108 -57 0 c-32 -1 -70 -8 -85 -16z"/>
<path d="M10983 10221 c-66 -30 -76 -55 -74 -175 2 -99 1 -103 -25 -126 -15
-14 -39 -52 -54 -85 -15 -33 -49 -84 -74 -114 -26 -29 -53 -66 -61 -82 -19
-36 -19 -95 0 -149 33 -94 8 -184 -84 -300 -118 -148 -158 -274 -240 -760 -17
-96 -44 -229 -62 -295 -36 -137 -39 -187 -25 -495 7 -142 6 -222 -3 -292 -14
-111 -6 -144 32 -132 35 11 72 7 146 -17 56 -18 73 -20 85 -10 25 21 28 84 10
223 -23 181 -15 409 22 603 22 119 26 172 28 350 2 156 6 220 17 248 12 31 17
36 26 25 19 -24 32 -81 48 -209 12 -103 25 -155 69 -282 48 -137 56 -171 66
-278 8 -94 16 -136 36 -178 34 -76 39 -126 21 -213 -9 -40 -18 -112 -20 -161
-6 -107 -6 -107 133 -114 98 -6 98 -6 115 21 15 23 17 41 12 124 -3 53 -15
131 -27 172 -11 41 -34 128 -50 192 l-31 117 -2 333 c-2 308 -4 342 -27 450
l-24 117 32 93 c17 51 40 136 50 188 12 57 44 154 80 243 34 81 66 175 72 208
11 58 10 63 -24 142 -19 45 -39 106 -44 135 -9 51 -9 53 17 67 74 38 88 217
27 350 -38 83 -104 106 -193 66z"/>
<path d="M2092 10080 c-39 -9 -105 -69 -123 -111 -7 -19 -9 -51 -5 -92 6 -51
15 -77 47 -125 22 -34 55 -72 72 -84 18 -12 34 -26 36 -31 1 -4 20 -28 41 -52
52 -60 57 -81 28 -105 -13 -11 -26 -19 -30 -20 -4 0 -10 -10 -13 -22 -4 -13
-20 -37 -36 -54 -20 -21 -30 -43 -33 -71 -2 -23 -13 -54 -24 -71 -12 -16 -42
-74 -68 -128 -42 -89 -46 -106 -45 -168 1 -80 5 -97 37 -148 23 -36 25 -37 56
-26 18 6 48 24 65 41 l32 30 -4 -49 c-13 -122 -35 -507 -35 -595 l0 -97 30 -7
c28 -6 30 -10 30 -49 0 -23 14 -179 30 -347 l30 -304 41 -92 41 -92 -26 -99
c-14 -54 -31 -147 -38 -206 -10 -95 -9 -113 6 -162 15 -47 24 -60 64 -85 25
-16 41 -29 36 -29 -22 0 -75 -65 -88 -109 l-13 -46 -71 -16 c-38 -9 -93 -24
-121 -34 -45 -15 -51 -20 -51 -45 0 -25 8 -32 56 -56 l56 -27 132 11 c72 7
168 15 214 18 l82 7 0 -34 c0 -27 -13 -51 -65 -114 -36 -44 -65 -86 -65 -93 0
-26 -18 -2 -24 33 -9 44 -79 120 -120 131 -38 9 -155 -13 -208 -39 -62 -32
-125 -114 -133 -174 -3 -26 -18 -104 -32 -173 l-25 -126 -41 -22 c-32 -18 -43
-20 -55 -10 -16 14 -32 -2 -228 -221 -93 -102 -164 -213 -164 -252 0 -19 20
-45 70 -94 l71 -68 98 7 c55 4 113 11 130 16 17 5 33 5 35 2 2 -4 11 -61 21
-127 l17 -120 -41 -215 c-40 -213 -74 -418 -87 -516 l-6 -51 37 -7 c30 -6 35
-10 28 -24 -4 -9 -8 -80 -9 -157 0 -77 -6 -174 -12 -215 -9 -55 -10 -90 -2
-130 24 -123 -4 -709 -46 -954 -12 -72 -13 -98 -3 -142 7 -32 18 -54 26 -54
17 0 16 -5 -2 -68 -10 -32 -28 -63 -48 -81 l-32 -30 35 -36 c19 -19 39 -35 46
-35 7 0 36 11 64 24 29 14 58 22 65 19 10 -3 15 16 20 76 9 101 20 121 70 135
39 11 40 13 47 66 3 30 6 101 7 157 1 63 11 155 27 240 17 93 23 154 19 188
-3 28 -1 124 5 214 10 154 12 168 45 243 20 44 39 108 44 142 9 59 52 187 74
214 5 6 15 12 22 12 16 0 173 -465 209 -620 31 -128 72 -377 81 -485 6 -79 40
-248 71 -354 12 -43 18 -52 34 -48 35 9 80 -58 80 -120 0 -21 3 -54 6 -75 6
-35 8 -37 70 -52 84 -21 93 -20 125 10 34 33 30 51 -44 183 -30 53 -60 113
-68 133 -12 34 -11 40 8 60 11 13 24 34 29 48 16 51 2 224 -48 560 -45 308
-50 358 -45 465 3 93 1 129 -11 158 -12 33 -13 52 -3 120 13 96 14 178 2 229
-8 35 -6 41 56 122 l65 85 30 138 c47 219 58 304 48 375 -5 35 -16 128 -25
208 -9 80 -27 189 -41 242 -13 53 -24 115 -24 138 0 22 -8 57 -19 78 -10 20
-21 53 -25 72 l-6 35 -123 29 c-67 16 -152 38 -188 49 l-67 21 5 151 c3 82 10
161 16 176 10 24 14 25 69 21 100 -7 169 13 236 70 78 67 92 86 92 119 0 15
11 59 25 97 16 44 25 91 25 128 0 33 7 97 15 144 12 68 13 102 5 170 -5 47
-19 189 -29 315 -14 158 -30 274 -50 369 -21 95 -31 167 -31 225 0 48 -4 112
-9 143 -14 80 -17 266 -6 277 6 5 35 5 70 1 33 -5 60 -8 61 -7 1 1 -5 68 -13
149 l-14 148 56 206 56 207 -5 316 c-2 174 -9 334 -15 356 -17 66 -52 86 -243
139 -31 9 -70 27 -86 41 -17 14 -38 25 -47 25 -10 0 -27 9 -39 20 -80 75 -86
82 -86 119 0 23 -11 52 -30 81 -16 25 -30 51 -30 59 0 27 -51 107 -83 129 -27
18 -46 22 -103 21 -38 -1 -84 -5 -102 -9z m-54 -4377 c22 -5 23 -9 17 -51 -5
-36 -19 -79 -31 -100 -1 -1 -31 -11 -67 -21 -36 -11 -76 -22 -88 -26 -24 -7
-24 -7 -3 9 15 10 20 23 17 39 -4 21 1 25 64 44 55 16 69 24 71 43 3 21 1 22
-36 15 -42 -7 -56 2 -46 29 5 13 18 17 69 24 6 1 21 -1 33 -5z m-300 -295 c-5
-14 -70 -49 -77 -42 -3 2 6 15 19 29 24 26 65 35 58 13z m933 -619 c11 -37 10
-202 -1 -219 -20 -31 -37 81 -32 208 2 48 21 54 33 11z"/>
<path d="M8508 9840 c-47 -30 -48 -31 -48 -83 1 -59 13 -81 53 -91 24 -6 27
-11 27 -46 0 -43 -24 -112 -51 -147 -14 -19 -18 -21 -23 -7 -11 28 -6 89 8
110 13 19 20 45 17 72 -1 7 -16 12 -41 12 l-40 0 0 -77 c0 -43 -3 -129 -7
-191 l-6 -114 24 4 c32 4 35 -19 14 -113 -15 -66 -16 -88 -6 -153 6 -42 11
-152 11 -244 0 -203 11 -274 54 -361 58 -117 57 -136 -18 -220 -25 -29 -46
-61 -46 -72 0 -37 30 -33 119 13 47 25 112 55 144 68 31 12 57 27 57 34 0 32
-28 105 -87 229 -82 170 -84 198 -28 357 49 141 54 220 25 364 -18 88 -20 110
-9 116 19 12 25 187 9 245 -12 43 -11 47 14 84 24 34 25 41 15 64 -7 15 -23
34 -36 42 -12 9 -23 25 -23 36 0 28 -27 77 -49 89 -25 13 -18 15 -73 -20z"/>
<path d="M4688 8639 c-67 -44 -131 -170 -147 -287 -13 -100 -27 -129 -87 -178
-42 -35 -63 -60 -117 -144 -24 -38 -44 -193 -51 -394 l-5 -169 47 -47 c26 -26
58 -54 72 -63 23 -16 25 -23 25 -100 0 -57 -5 -91 -16 -112 -11 -20 -26 -109
-43 -265 -31 -277 -42 -369 -55 -430 -19 -99 -31 -190 -35 -279 -4 -72 -10
-104 -27 -137 -21 -38 -22 -45 -9 -68 10 -20 11 -29 2 -38 -7 -7 -12 -18 -12
-26 0 -34 -63 -103 -121 -132 -32 -17 -59 -34 -59 -39 0 -5 -3 -16 -6 -25 -4
-10 5 -20 27 -31 39 -21 110 -13 151 17 16 11 56 31 91 45 75 30 76 31 81 70
2 17 13 44 25 58 26 34 26 43 2 69 -19 21 -19 22 20 136 47 135 79 261 79 311
0 26 8 43 29 63 19 18 32 43 37 70 11 66 43 145 98 238 28 48 53 88 56 88 3 0
5 -80 5 -178 0 -109 5 -189 12 -209 8 -23 9 -68 2 -167 -6 -91 -6 -149 1 -181
9 -42 8 -51 -11 -84 -18 -29 -22 -51 -21 -116 0 -44 -4 -106 -8 -139 -12 -76
-2 -96 48 -95 20 0 52 5 71 12 28 10 36 20 48 57 8 27 11 64 7 92 -4 35 -1 53
12 73 13 19 14 29 6 34 -8 5 -1 36 24 106 l36 100 14 290 c15 279 16 292 43
355 16 36 32 85 35 110 4 24 11 49 15 55 5 5 16 34 24 62 15 51 15 56 -9 138
-28 97 -31 85 57 230 27 44 55 107 64 141 14 56 14 67 -4 155 -45 219 -105
356 -198 456 -38 41 -42 52 -52 127 -29 206 -55 297 -94 329 -37 31 -110 77
-121 77 -6 0 -32 -14 -58 -31z m330 -824 c7 -14 12 -35 12 -46 0 -11 11 -54
25 -96 l26 -75 -21 -59 c-11 -33 -20 -67 -20 -77 0 -9 -4 -23 -9 -31 -6 -9
-16 16 -30 76 -18 77 -20 108 -14 212 3 66 9 121 13 121 4 0 12 -11 18 -25z"/>
<path d="M12221 8140 c-65 -16 -73 -41 -57 -196 l8 -80 -71 -66 c-79 -71 -91
-98 -80 -168 4 -25 8 -84 8 -131 1 -82 3 -88 42 -154 l41 -68 -6 -96 c-7 -105
-14 -78 92 -366 20 -55 26 -89 26 -160 1 -100 -18 -357 -35 -480 -15 -105 -2
-151 57 -215 42 -45 120 -89 187 -104 l27 -6 0 85 c0 100 -12 93 166 99 80 3
131 9 150 19 l27 14 -103 69 c-134 89 -145 110 -137 263 3 58 15 147 26 196
30 131 27 202 -11 305 l-31 85 -6 260 -7 260 -33 80 c-27 67 -32 87 -26 125 4
25 9 62 12 82 4 29 -2 50 -26 94 -45 83 -42 99 24 131 68 33 60 53 -22 53 -52
0 -54 1 -69 35 -12 30 -19 35 -48 35 -18 0 -46 2 -62 4 -16 3 -44 1 -63 -4z"/>
<path d="M5987 8032 c-20 -22 -42 -82 -52 -142 -11 -66 -20 -78 -82 -108 -31
-15 -65 -39 -76 -53 -38 -52 -96 -459 -83 -581 10 -100 26 -147 65 -187 28
-29 48 -40 81 -45 72 -11 122 -44 150 -101 24 -48 25 -56 23 -240 -2 -140 -7
-220 -22 -305 -12 -63 -21 -136 -21 -162 l0 -47 73 -16 c52 -11 112 -15 214
-13 141 3 143 3 143 26 0 14 -17 40 -45 66 -44 43 -50 60 -46 121 2 32 23 105
30 105 3 0 23 -11 42 -25 49 -32 125 -135 146 -197 18 -50 18 -50 58 -46 22 3
88 15 147 29 107 24 108 24 108 53 0 44 -58 134 -194 304 -41 51 -69 120 -90
223 -17 84 -36 275 -36 364 0 100 -14 132 -92 209 -82 82 -98 112 -142 254
-39 127 -59 170 -93 198 l-24 21 32 54 c17 30 34 73 37 96 4 38 1 46 -25 70
-26 24 -176 93 -201 93 -5 0 -16 -8 -25 -18z"/>
<path d="M9947 8019 c-87 -21 -108 -57 -104 -186 2 -76 0 -84 -21 -98 -12 -9
-34 -39 -48 -67 -14 -28 -45 -71 -68 -97 -93 -102 -104 -137 -71 -231 8 -23
15 -53 15 -66 0 -51 -41 -133 -102 -200 -107 -121 -149 -236 -223 -609 -24
-123 -61 -288 -81 -367 l-37 -143 9 -155 c6 -85 7 -234 3 -330 -8 -194 -4
-211 43 -190 20 10 38 8 89 -6 35 -9 81 -19 101 -21 36 -5 37 -4 48 37 9 32 8
65 -6 153 -24 161 -15 397 20 572 23 109 27 160 29 320 3 199 14 258 43 234
19 -16 31 -65 48 -196 12 -87 25 -138 62 -230 59 -149 61 -157 73 -281 8 -72
18 -116 35 -150 37 -74 39 -101 16 -214 -12 -57 -20 -128 -18 -158 3 -50 5
-54 33 -62 48 -15 202 -15 216 -1 19 19 22 110 6 193 -8 41 -33 138 -57 215
l-42 140 -3 310 c-2 250 -6 324 -20 380 -30 125 -30 143 3 230 16 44 39 119
50 168 11 48 47 147 80 220 88 196 91 224 39 337 -19 41 -37 92 -40 112 -5 34
-3 39 28 57 43 25 59 74 53 172 -5 101 -43 184 -92 204 -39 17 -54 17 -109 4z"/>
<path d="M6977 7816 c-45 -42 -69 -103 -74 -191 -6 -96 10 -147 57 -173 30
-16 31 -20 26 -60 -3 -24 -22 -75 -41 -115 -54 -109 -51 -130 50 -347 31 -68
66 -162 77 -209 11 -47 34 -119 50 -160 34 -83 34 -119 3 -246 -15 -57 -18
-124 -19 -370 -2 -210 -6 -313 -15 -345 -7 -25 -31 -101 -53 -170 -32 -99 -41
-146 -45 -225 -7 -129 -6 -131 126 -128 53 1 108 6 122 11 25 10 26 12 21 94
-2 45 -10 105 -18 132 -23 80 -18 137 16 205 24 48 32 80 40 164 11 114 16
133 79 280 32 75 46 126 62 228 20 131 39 199 58 199 24 0 36 -80 37 -260 1
-162 4 -201 28 -310 38 -172 46 -399 21 -566 -14 -95 -15 -123 -6 -156 12 -39
13 -40 54 -36 23 3 70 12 103 22 47 13 68 14 89 6 18 -7 32 -7 38 -1 5 5 9
163 10 372 l1 364 -33 110 c-18 60 -50 199 -72 308 -80 404 -122 516 -241 644
-96 103 -119 175 -87 270 30 91 22 118 -57 206 -36 39 -77 93 -90 119 -13 26
-35 55 -49 64 -24 15 -25 21 -25 110 0 51 -5 104 -12 118 -28 62 -179 90 -231
42z"/>
<path d="M520 7485 c-58 -23 -94 -44 -113 -67 -26 -32 -47 -84 -47 -121 0 -10
-7 -31 -15 -47 -18 -34 -9 -66 31 -113 37 -44 55 -83 64 -140 l8 -51 -55 -50
c-52 -47 -117 -78 -288 -138 -16 -6 -35 -16 -42 -22 -11 -11 -30 -135 -54
-351 -10 -90 -9 -139 3 -272 l14 -163 77 -112 77 -113 -15 -55 c-17 -63 -95
-459 -95 -482 0 -11 13 -18 41 -23 59 -10 69 -40 81 -255 9 -140 15 -183 31
-215 14 -28 21 -66 24 -130 15 -356 26 -512 37 -530 23 -36 27 -67 36 -280 4
-115 13 -223 19 -238 9 -24 8 -33 -9 -56 -10 -16 -23 -46 -28 -69 -9 -37 -8
-43 14 -57 13 -8 47 -19 76 -23 45 -7 60 -5 99 14 41 20 46 27 57 74 7 28 12
62 12 75 0 13 7 31 17 40 14 14 15 34 10 148 -4 73 -14 184 -22 247 -10 70
-17 197 -17 325 -2 176 2 242 25 410 14 110 28 248 29 307 2 59 6 104 9 100 3
-4 18 -77 34 -162 15 -85 40 -207 56 -270 16 -63 37 -171 48 -240 34 -211 56
-548 37 -578 -3 -6 -7 -56 -8 -112 l-2 -101 -53 -40 c-29 -22 -53 -43 -53 -48
0 -4 40 -47 90 -95 64 -63 94 -86 102 -79 112 84 176 162 229 280 36 79 35
110 -8 238 -26 78 -26 82 -20 275 6 181 5 198 -14 240 -16 36 -21 78 -29 240
-8 182 -7 206 16 360 33 224 31 216 65 230 20 9 29 19 29 36 0 37 -28 161 -60
265 -16 52 -38 138 -49 190 l-19 94 21 35 c11 19 42 68 69 107 27 40 52 83 57
95 13 34 -17 690 -32 704 -7 6 -64 32 -127 58 -153 63 -159 66 -196 103 l-32
32 17 48 c10 26 21 73 25 103 4 30 15 63 24 73 13 15 18 43 20 119 4 109 -6
149 -41 165 -12 6 -48 31 -79 57 -70 57 -92 58 -208 11z"/>
<path d="M8365 7480 c-74 -15 -87 -24 -104 -71 -16 -44 -17 -44 -75 -50 -32
-4 -65 -13 -73 -22 -14 -14 -12 -17 23 -35 22 -10 52 -22 67 -26 48 -11 52
-46 17 -147 -16 -48 -30 -94 -30 -103 0 -9 11 -49 25 -88 30 -86 31 -103 6
-199 -38 -148 -36 -210 15 -576 20 -143 23 -192 15 -230 -5 -26 -17 -87 -27
-136 -16 -76 -16 -99 -6 -180 6 -50 29 -149 51 -219 51 -163 71 -260 71 -349
0 -102 -20 -138 -140 -249 -55 -50 -100 -96 -100 -100 0 -5 22 -13 49 -19 38
-8 81 -7 173 4 71 8 137 11 153 6 30 -7 30 -9 44 -115 l14 -108 26 7 c80 20
197 120 238 204 35 70 36 148 3 271 -12 47 -30 135 -41 195 -10 61 -32 178
-49 260 -39 185 -37 275 9 470 51 211 55 257 31 366 -27 123 -26 143 12 219
27 55 31 76 32 140 0 135 -16 334 -30 361 -7 15 -37 44 -66 65 -29 20 -72 56
-95 78 l-43 40 0 123 c0 148 -12 186 -64 208 -38 16 -69 17 -131 5z"/>
<path d="M11652 6879 c-24 -12 -50 -33 -59 -46 -9 -14 -22 -22 -30 -19 -9 4
-19 -6 -28 -28 -11 -25 -30 -43 -67 -63 -66 -36 -92 -84 -107 -202 -6 -47 -24
-130 -41 -183 -35 -119 -44 -200 -27 -248 12 -34 14 -35 62 -32 77 3 78 4 55
62 -23 58 -25 114 -9 209 13 75 33 121 53 121 11 0 11 -6 0 -40 -21 -59 -28
-195 -15 -275 6 -38 25 -106 42 -150 42 -107 45 -167 19 -380 -28 -225 -24
-291 18 -339 45 -51 47 -70 17 -127 -14 -28 -25 -52 -23 -54 2 -1 29 -5 60 -9
75 -8 93 8 84 73 -15 113 -17 230 -8 403 10 179 22 247 35 202 4 -10 5 -138 2
-284 -2 -146 1 -281 6 -301 12 -49 55 -91 88 -87 57 7 99 128 67 195 -15 31
-16 65 -10 302 5 209 10 284 25 349 12 52 19 121 19 183 0 96 2 103 37 172 29
55 38 87 41 135 7 97 -15 142 -114 238 -78 75 -84 84 -84 121 0 52 -17 101
-40 113 -24 13 -18 14 -68 -11z"/>
<path d="M10755 5759 c-22 -5 -66 -6 -97 -3 -40 4 -72 1 -108 -11 -28 -9 -60
-15 -71 -12 -14 4 -21 -1 -25 -21 -4 -15 -16 -37 -28 -50 -17 -19 -17 -22 -3
-16 16 6 17 -1 11 -77 -9 -118 9 -246 51 -358 25 -67 35 -110 35 -152 0 -54
-2 -59 -41 -96 -61 -57 -94 -110 -115 -183 -10 -36 -28 -80 -41 -99 -43 -63
-42 -150 3 -238 l25 -48 -11 -215 c-6 -118 -15 -226 -20 -240 -40 -109 -60
-293 -38 -348 5 -15 25 -83 43 -152 18 -69 41 -152 50 -185 13 -44 16 -80 12
-136 -6 -80 6 -143 68 -333 33 -103 33 -188 -1 -345 -24 -111 -25 -123 -11
-145 14 -21 14 -25 -3 -42 -26 -27 -110 -183 -110 -204 0 -30 27 -42 117 -51
157 -16 153 -15 152 -57 -1 -20 4 -50 11 -67 7 -16 16 -75 20 -131 5 -55 15
-116 23 -136 15 -35 17 -36 74 -40 35 -3 68 1 84 9 35 17 108 100 116 132 3
14 20 43 36 63 26 32 28 42 22 75 -17 87 -9 205 22 333 51 204 53 221 56 571
l2 336 28 40 c28 41 33 63 18 79 -5 5 -16 36 -25 69 -13 50 -14 81 -6 175 6
63 14 170 19 238 10 132 26 173 82 220 32 26 43 69 59 228 10 108 -6 275 -49
500 -20 104 -81 278 -107 304 -8 8 -85 51 -171 95 -86 44 -161 87 -167 96 -5
9 -6 28 -2 44 7 27 8 28 69 21 84 -8 98 2 73 49 -17 31 -18 41 -8 67 8 23 8
43 0 80 -12 49 -11 51 32 131 51 97 50 126 -6 159 -19 11 -41 33 -50 49 -8 16
-19 29 -23 29 -5 0 -15 2 -23 4 -7 2 -31 0 -53 -5z m257 -1316 c52 -98 62
-171 44 -311 -8 -66 -21 -123 -31 -138 l-16 -25 -54 77 c-75 107 -77 127 -30
314 21 83 40 150 44 150 4 0 23 -30 43 -67z"/>
<path d="M3636 5386 c-74 -11 -81 -15 -121 -57 -36 -38 -49 -65 -86 -175 -53
-159 -57 -234 -15 -328 14 -32 26 -64 26 -71 0 -8 -18 -49 -40 -92 -38 -74
-41 -90 -75 -323 -20 -135 -38 -253 -41 -263 -6 -18 40 -121 71 -162 16 -20
16 -20 58 3 63 33 97 29 125 -15 l24 -37 -21 -45 c-11 -25 -32 -109 -46 -185
-32 -179 -32 -306 -1 -597 29 -267 32 -352 18 -569 -6 -91 -14 -209 -16 -262
l-5 -97 35 -28 c123 -99 141 -130 168 -295 12 -73 12 -79 -14 -156 -17 -51
-24 -84 -18 -90 6 -6 22 -69 38 -142 15 -72 30 -134 33 -137 16 -16 25 16 24
85 0 42 3 88 7 101 8 23 9 22 31 -15 13 -22 29 -59 36 -82 16 -53 37 -64 134
-66 l70 -1 3 -32 c2 -21 9 -33 18 -33 11 0 13 9 8 38 -5 34 -3 42 21 60 37 29
45 28 45 -8 0 -25 5 -31 40 -41 28 -9 60 -9 107 -3 l68 9 3 61 3 62 -43 13
c-40 13 -44 18 -62 69 -22 65 -31 238 -19 350 l8 74 57 11 c99 17 95 -4 69
367 -19 277 -32 387 -92 778 -79 513 -73 482 -105 573 -25 71 -33 197 -14 227
5 8 24 20 42 26 26 8 34 17 36 40 1 16 12 68 23 115 l20 85 -75 150 c-41 82
-95 196 -121 254 -75 171 -84 183 -175 232 -70 38 -80 46 -80 70 0 22 6 29 28
34 15 3 32 7 38 9 18 6 65 111 57 131 -4 11 2 22 17 34 l23 17 -21 31 c-24 33
-28 63 -11 93 16 30 -14 108 -59 152 -39 38 -107 68 -151 66 -14 -1 -61 -6
-105 -13z m320 -3513 l72 5 8 -61 c10 -80 10 -78 -38 -175 -48 -95 -40 -102
-93 73 -36 121 -55 219 -33 176 12 -22 16 -23 84 -18z"/>
<path d="M5357 5285 c-47 -13 -117 -58 -117 -75 0 -5 -14 -25 -31 -45 -31 -35
-31 -37 -27 -115 4 -64 9 -85 30 -112 28 -36 104 -259 95 -280 -2 -8 -54 -40
-113 -73 -60 -32 -132 -73 -161 -91 l-51 -32 -6 -99 c-22 -346 -26 -385 -46
-423 -31 -60 -27 -134 11 -203 29 -54 73 -97 99 -97 32 0 69 36 90 89 13 31
26 60 30 64 4 4 10 -35 13 -89 5 -79 2 -119 -17 -222 -70 -364 -119 -808 -104
-927 3 -22 -1 -68 -8 -102 -30 -133 -53 -371 -64 -652 l-12 -294 -34 -47 c-40
-55 -42 -82 -12 -130 19 -32 21 -48 19 -177 l-1 -143 58 0 c33 0 87 3 120 6
58 6 62 8 72 39 7 22 8 52 1 92 -11 69 -3 122 28 181 12 24 18 48 14 55 -4 7
-6 66 -5 132 2 66 -1 145 -7 175 -7 46 -4 81 24 225 19 93 45 217 59 275 30
122 230 677 239 663 4 -6 11 -43 18 -83 7 -50 17 -79 30 -89 15 -13 21 -40 31
-141 9 -107 16 -134 43 -190 31 -61 33 -75 45 -240 6 -96 14 -247 17 -335 4
-144 2 -166 -16 -218 -18 -52 -19 -62 -7 -85 26 -51 39 -108 45 -205 l6 -98
60 -25 c33 -14 75 -30 93 -35 19 -6 55 -22 80 -35 41 -22 57 -25 129 -22 45 2
87 8 93 14 6 6 13 27 17 47 5 33 1 42 -35 81 -22 24 -48 59 -57 77 -10 19 -37
57 -61 86 -24 28 -44 56 -44 62 0 6 -9 20 -21 32 -20 20 -20 21 -3 66 17 43
17 62 1 367 -19 360 -20 429 -18 807 1 147 -1 278 -4 292 -6 22 -2 26 29 37
20 6 38 16 41 21 4 5 -7 78 -24 162 -17 83 -35 181 -41 216 l-11 64 78 81
c176 181 183 190 183 241 0 47 -52 221 -117 390 -19 50 -43 140 -54 200 -10
61 -26 126 -35 146 -15 35 -16 36 -148 67 -73 18 -144 32 -159 32 -32 0 -63
31 -89 88 -11 24 -26 46 -34 49 -20 7 -18 76 3 116 9 18 25 72 35 121 18 88
18 89 -2 124 -11 19 -18 42 -15 52 10 32 -84 81 -195 103 -14 3 -47 -1 -73 -8z
m604 -1357 c6 -24 15 -55 19 -69 7 -23 3 -32 -31 -65 -21 -21 -42 -34 -46 -30
-15 14 -5 154 12 180 24 36 32 33 46 -16z"/>
<path d="M7061 4812 c-43 -21 -81 -90 -81 -145 0 -22 -6 -56 -12 -75 -11 -28
-10 -38 5 -64 22 -39 22 -58 -2 -58 -33 0 -78 -46 -85 -87 -5 -36 -9 -39 -68
-62 -103 -38 -121 -54 -173 -146 -26 -47 -51 -85 -54 -85 -15 0 -91 72 -91 86
0 8 -19 35 -42 60 -41 44 -42 45 -50 23 -9 -23 -9 -22 -28 9 -11 18 -24 32
-30 32 -29 0 4 -85 73 -187 42 -63 57 -136 32 -163 -14 -15 -15 -25 -6 -57 6
-21 11 -62 11 -90 0 -100 78 -243 133 -243 24 0 85 33 103 56 8 10 13 -39 18
-189 4 -111 10 -249 15 -307 7 -82 4 -136 -10 -249 -13 -96 -19 -206 -19 -331
0 -133 -5 -210 -16 -262 -8 -40 -17 -122 -19 -183 -4 -148 -16 -276 -27 -297
-8 -17 2 -18 138 -18 l146 0 -6 28 c-4 15 -9 113 -12 217 l-6 190 36 79 c20
44 43 103 51 131 9 28 31 89 51 135 19 46 39 117 45 159 12 83 18 95 41 86 11
-5 17 -29 22 -99 4 -56 16 -121 30 -163 40 -118 61 -292 58 -476 -1 -62 3 -97
13 -117 8 -16 15 -46 15 -67 0 -21 3 -55 6 -75 l7 -38 116 0 c64 0 121 4 127
8 6 4 13 39 16 79 5 61 3 72 -12 76 -13 3 -18 21 -23 83 -3 44 -11 94 -17 111
-9 24 -9 46 -1 83 16 74 14 106 -10 153 -21 39 -21 47 -10 147 6 58 11 211 11
341 0 204 3 247 20 315 31 120 35 191 16 247 -10 31 -16 81 -16 145 l0 97 59
1 c32 1 82 9 109 18 94 32 203 137 182 177 -7 12 -4 24 10 42 11 14 23 47 27
72 5 39 16 59 65 114 72 79 122 150 114 159 -4 3 -12 0 -18 -6 -7 -7 -18 -12
-26 -12 -8 0 -23 -11 -34 -25 -20 -26 -76 -60 -84 -52 -3 2 5 21 17 41 12 20
19 39 17 42 -12 12 -41 -13 -93 -82 -32 -41 -63 -74 -71 -74 -7 0 -20 -13 -29
-29 -8 -16 -18 -31 -22 -33 -5 -1 -15 -16 -23 -33 -13 -25 -22 -30 -50 -29
-32 0 -35 4 -41 35 -7 44 -88 199 -137 264 -27 36 -48 52 -75 60 -29 8 -46 22
-69 59 l-32 48 18 77 c21 92 21 88 8 178 -11 82 -35 123 -86 147 -45 21 -122
20 -165 -2z"/>
<path d="M12040 4780 c-46 -46 -60 -76 -60 -126 0 -24 -5 -34 -15 -34 -17 0
-20 -21 -6 -48 5 -9 16 -43 26 -75 10 -38 28 -69 51 -92 38 -38 45 -82 18
-109 -21 -22 -31 -20 -38 8 l-6 24 -147 -67 c-82 -37 -163 -73 -180 -80 -37
-15 -40 -28 -17 -72 8 -17 13 -37 10 -46 -7 -18 18 -69 39 -76 16 -7 21 -47 6
-47 -5 0 -26 -15 -45 -34 -28 -26 -36 -41 -36 -68 0 -52 18 -62 97 -53 36 4
72 9 80 12 28 11 15 -79 -23 -157 -43 -89 -62 -161 -70 -273 -8 -97 13 -219
77 -452 29 -106 43 -181 49 -255 4 -58 14 -139 23 -180 40 -187 58 -528 30
-562 -6 -7 -13 -22 -15 -33 -5 -23 17 -75 32 -75 5 0 36 13 68 30 45 23 60 36
70 64 7 19 19 39 27 46 12 10 16 8 24 -11 5 -15 4 -33 -2 -46 -6 -13 -6 -36 0
-60 11 -49 34 -53 102 -19 38 20 52 33 56 54 6 27 20 59 45 98 12 19 10 33
-18 115 -20 58 -38 140 -47 214 -13 106 -66 302 -95 355 -6 10 -2 26 10 45 10
16 26 68 35 115 9 47 30 115 45 152 21 50 31 96 40 184 7 65 16 143 21 174 5
30 9 80 9 112 l0 56 40 7 c40 7 40 7 40 53 0 25 -10 101 -21 168 l-22 123 46
103 c74 165 79 184 72 260 -7 71 -22 91 -76 102 -13 3 -36 7 -51 10 -15 4 -44
21 -64 40 -36 33 -37 35 -31 94 4 46 12 71 36 104 28 40 30 46 20 88 -25 113
-37 137 -84 159 -25 12 -65 21 -90 21 -39 0 -50 -5 -85 -40z"/>
<path d="M9010 4281 c-113 -35 -168 -67 -186 -110 -19 -46 -19 -147 1 -159 14
-7 14 -12 0 -46 -19 -45 -14 -66 15 -66 13 0 20 -7 20 -20 0 -11 4 -28 9 -38
28 -53 30 -98 12 -237 -13 -106 -24 -152 -44 -191 -14 -28 -31 -81 -38 -118
l-11 -67 -22 20 c-20 18 -22 31 -21 100 1 64 5 83 23 106 24 30 29 70 11 81
-7 4 -9 20 -6 40 3 20 1 37 -7 43 -10 8 -10 27 -4 77 9 62 6 85 -8 72 -3 -4
-11 -36 -17 -73 l-11 -66 -66 2 c-65 2 -65 2 -63 -24 1 -20 -3 -27 -16 -27
-10 0 -23 -14 -32 -32 -9 -21 -20 -32 -31 -30 -24 4 -32 -16 -15 -41 12 -19
13 -27 1 -48 -12 -24 -10 -30 27 -78 48 -65 54 -115 14 -133 -68 -31 -111
-162 -99 -300 5 -62 13 -85 52 -153 65 -112 121 -170 185 -191 29 -9 55 -20
60 -23 9 -9 -6 -246 -28 -426 -26 -225 -34 -440 -26 -747 4 -164 9 -299 12
-302 8 -8 223 -10 250 -2 26 8 27 6 34 -35 4 -24 22 -77 40 -118 17 -42 51
-134 75 -205 l43 -128 -6 -147 c-7 -202 -18 -227 -115 -283 -29 -16 -50 -34
-45 -38 4 -5 37 -14 73 -22 43 -10 65 -19 65 -29 0 -21 102 -69 146 -69 20 0
73 7 116 15 82 15 113 37 113 77 0 12 10 37 23 57 l22 36 5 -68 c3 -37 10 -67
15 -67 6 0 12 32 15 73 4 56 10 79 28 102 30 38 52 90 52 123 0 14 -13 49 -30
79 -30 53 -40 101 -19 87 7 -4 10 1 7 12 -2 11 -12 19 -24 18 -18 0 -19 4 -11
60 12 91 27 193 40 263 8 47 8 89 -1 170 -7 60 -14 117 -15 128 -2 16 16 26
101 59 101 39 102 39 102 72 0 49 -125 666 -165 813 -35 131 -55 278 -55 411
0 91 10 107 72 116 32 6 45 14 60 41 11 18 40 47 64 64 33 22 45 38 50 65 3
19 -3 123 -15 231 -19 176 -24 201 -48 242 -16 25 -46 81 -68 126 -39 78 -42
81 -135 141 -52 34 -105 70 -118 80 -25 21 -40 86 -71 300 -17 120 -23 138
-74 240 -54 107 -56 110 -103 127 -62 22 -80 21 -184 -12z m374 -3405 c21
-295 13 -399 -22 -320 -10 20 -9 30 3 47 21 29 19 47 -5 47 -13 0 -20 -7 -20
-20 0 -11 -5 -20 -10 -20 -22 0 -34 61 -40 210 -6 115 -13 172 -28 220 -12 35
-19 66 -17 69 6 5 71 18 101 20 20 1 21 -8 38 -253z"/>
</g>
</svg>
